<?xml version="1.0" standalone="no"?>
<!DOCTYPE svg PUBLIC "-//W3C//DTD SVG 20010904//EN"
 "http://www.w3.org/TR/2001/REC-SVG-20010904/DTD/svg10.dtd">
<svg version="1.0" xmlns="http://www.w3.org/2000/svg"
 width="991.000000pt" height="991.000000pt" viewBox="0 0 991.000000 991.000000"
 preserveAspectRatio="xMidYMid meet">
<metadata>
Created by potrace 1.11, written by Peter Selinger 2001-2013
</metadata>
<g transform="translate(0.000000,991.000000) scale(0.100000,-0.100000)"
fill="#000000" stroke="none">
<path d="M5079 9746 c-4 -3 -3 -2086 1 -2087 3 -1 476 -2 1053 -3 l1047 -1 1
30 c2 38 2 27 -5 126 -4 47 -8 96 -11 109 -3 13 -7 42 -11 65 -3 22 -10 60
-16 85 -5 25 -11 53 -14 64 -20 99 -101 319 -161 440 -86 172 -215 360 -343
500 -156 170 -394 344 -620 454 -286 138 -525 198 -862 216 -32 1 -59 2 -59 2z"/>
<path d="M4537 9444 c-1 -1 -40 -4 -87 -8 -496 -37 -1008 -275 -1370 -636
-124 -123 -170 -178 -263 -309 -86 -120 -146 -228 -226 -401 -55 -120 -130
-377 -151 -520 -6 -41 -13 -86 -16 -100 -2 -14 -7 -75 -10 -136 l-7 -112 1124
2 1124 1 0 1110 0 1110 -58 0 c-32 1 -59 0 -60 -1z"/>
<path d="M4880 7370 c-5 -3 -9 -660 -9 -1459 l0 -1454 132 6 c608 26 1199 248
1677 630 89 71 95 77 226 204 422 411 724 991 814 1563 6 41 14 89 17 105 7
43 10 76 18 199 8 106 8 133 6 186 l-1 25 -1436 0 c-790 0 -1440 -2 -1444 -5z"/>
<path d="M2156 6920 c-7 -12 10 -277 19 -325 3 -11 7 -36 9 -55 52 -363 249
-806 488 -1095 109 -131 273 -290 388 -376 30 -22 62 -45 70 -52 25 -20 141
-93 200 -126 228 -128 522 -230 767 -267 21 -3 45 -7 53 -9 26 -7 172 -18 245
-19 l70 -1 0 1163 c0 639 -2 1163 -5 1163 -16 4 -2302 3 -2304 -1z"/>
<path d="M1243 3658 c-15 -18 -15 -1438 -1 -1455 16 -19 48 -15 56 7 4 10 7
269 7 575 0 305 2 555 6 555 3 0 10 -19 16 -42 10 -41 159 -563 187 -658 8
-25 38 -128 66 -230 29 -102 56 -193 62 -202 10 -21 41 -24 55 -5 8 9 166 546
263 897 10 36 31 110 47 165 l28 100 3 -582 c2 -556 3 -582 21 -588 33 -10 51
5 52 44 0 20 1 346 1 725 1 730 2 705 -44 706 -12 0 -23 -21 -42 -82 -30 -100
-56 -189 -57 -203 -1 -5 -6 -21 -11 -35 -8 -20 -136 -463 -263 -905 -22 -77
-23 -79 -34 -52 -6 16 -11 31 -11 35 0 3 -9 36 -20 72 -22 71 -163 561 -187
650 -8 30 -33 116 -55 190 -22 74 -41 144 -44 155 -2 11 -14 54 -27 95 -18 59
-27 76 -43 78 -12 2 -26 -3 -31 -10z"/>
<path d="M2662 3661 c-7 -4 -25 -57 -38 -117 -100 -437 -135 -589 -139 -604
-4 -14 -93 -398 -100 -430 -2 -8 -18 -79 -36 -158 -28 -122 -31 -145 -18 -153
17 -11 30 -11 46 -1 11 7 88 313 99 392 3 19 8 38 12 42 8 8 74 10 258 9 l132
-1 7 -37 c6 -34 42 -192 79 -342 13 -57 32 -78 60 -68 23 9 20 48 -14 194 -80
335 -208 885 -214 918 -15 76 -78 331 -87 346 -10 20 -26 24 -47 10z m31 -226
c10 -56 26 -130 51 -232 14 -56 27 -112 30 -125 2 -13 20 -90 39 -173 20 -82
37 -159 39 -170 3 -19 -3 -20 -170 -21 l-174 -1 7 36 c4 20 17 81 30 136 19
76 86 366 119 510 20 87 21 88 29 40z"/>
<path d="M3412 3651 c-100 -31 -157 -97 -187 -216 -15 -61 -17 -123 -17 -495
0 -234 3 -445 7 -469 27 -176 129 -272 297 -280 162 -7 276 83 314 246 17 75
19 389 2 399 -18 12 -350 12 -365 1 -17 -12 -17 -53 0 -60 7 -2 73 -5 147 -5
74 -1 140 -1 147 -1 8 -1 11 -38 11 -133 -1 -204 -27 -285 -108 -339 -101 -68
-264 -42 -326 50 -53 80 -56 119 -56 581 0 281 4 441 11 474 29 123 91 181
206 191 110 9 186 -26 229 -105 32 -60 41 -103 45 -222 1 -22 38 -33 57 -17
31 26 5 205 -41 283 -33 56 -60 81 -120 107 -64 28 -179 33 -253 10z"/>
<path d="M4041 3657 c-8 -8 -11 -203 -11 -734 l0 -723 25 -6 c14 -3 96 -4 183
-2 130 4 165 9 203 26 91 40 159 137 175 247 4 28 8 241 8 475 0 442 -4 489
-45 571 -26 51 -76 98 -139 127 -51 24 -66 26 -221 28 -115 2 -170 -1 -178 -9z
m367 -82 c58 -24 106 -83 127 -156 14 -53 16 -116 16 -487 0 -235 -3 -438 -5
-451 -14 -62 -39 -119 -67 -149 -50 -53 -88 -65 -241 -70 l-138 -4 0 670 0
671 133 -3 c99 -2 143 -7 175 -21z"/>
<path d="M5172 3658 c-5 -7 -35 -123 -66 -258 -31 -135 -61 -263 -66 -285 -18
-73 -61 -260 -66 -285 -3 -14 -21 -92 -41 -175 -20 -82 -39 -168 -44 -190 -5
-22 -19 -85 -33 -140 -26 -105 -23 -135 14 -135 11 0 24 8 29 19 8 15 78 303
97 401 3 13 7 26 9 28 5 6 376 4 382 -1 3 -4 39 -147 57 -232 44 -203 57 -232
95 -208 20 13 18 49 -10 163 -24 96 -22 90 -43 185 -8 39 -28 126 -45 195 -16
69 -32 136 -35 150 -3 14 -21 95 -41 180 -20 85 -38 162 -40 170 -1 8 -19 86
-40 172 -20 87 -38 167 -41 178 -2 11 -6 30 -9 42 -8 35 -43 50 -63 26z m42
-253 c7 -41 30 -140 60 -265 21 -88 36 -154 81 -350 2 -8 7 -29 10 -46 l7 -31
-174 1 c-167 1 -173 2 -170 21 6 35 42 198 54 240 6 22 12 49 14 60 1 11 20
97 42 190 22 94 43 185 47 204 8 38 19 29 29 -24z"/>
<path d="M5723 3643 c-9 -37 -8 -1427 1 -1441 5 -9 84 -12 276 -12 248 0 270
1 279 18 6 11 6 24 0 35 -9 15 -33 17 -249 17 -222 0 -240 1 -241 18 0 9 0
321 0 692 0 464 -3 678 -11 687 -19 23 -47 15 -55 -14z"/>
<path d="M6429 3659 c-9 -5 -12 -184 -12 -727 1 -396 4 -725 7 -731 8 -12 481
-16 510 -5 21 8 21 50 0 58 -9 3 -112 6 -230 6 l-214 0 0 48 c-4 437 -4 582 0
583 3 1 102 2 220 3 118 1 221 5 228 9 6 5 12 16 12 26 0 10 -6 23 -12 28 -8
5 -108 9 -230 9 l-218 -1 -1 55 c-2 201 2 563 6 570 3 5 102 8 220 8 118 1
219 3 225 7 14 9 13 40 -2 53 -15 11 -490 13 -509 1z"/>
<path d="M7153 3663 c-10 -4 -13 -158 -13 -723 0 -395 3 -725 6 -734 7 -18 49
-22 59 -6 3 5 6 286 6 622 l1 613 20 -45 c12 -25 25 -54 29 -65 20 -48 154
-380 249 -615 202 -501 208 -515 225 -518 46 -10 45 -25 45 739 0 563 -3 719
-12 726 -21 13 -47 13 -54 1 -4 -6 -7 -288 -7 -625 0 -337 -1 -613 -2 -613 -1
0 -10 21 -20 48 -10 26 -26 65 -36 87 -15 34 -279 692 -402 1000 -45 113 -54
125 -94 108z"/>
<path d="M8310 3655 c-5 -5 -34 -120 -65 -255 -31 -135 -81 -348 -110 -475
-29 -126 -72 -311 -95 -410 -23 -99 -43 -187 -45 -196 -2 -9 -8 -33 -14 -54
-12 -44 0 -75 29 -75 11 0 24 8 29 18 5 9 30 109 56 222 26 113 49 207 51 209
4 5 376 2 382 -3 5 -5 28 -99 38 -151 3 -16 19 -88 37 -160 28 -112 35 -130
53 -133 11 -2 26 4 33 12 12 15 -1 77 -145 698 -3 13 -10 41 -15 63 -6 30 -72
312 -104 445 -2 8 -15 66 -29 128 -14 63 -28 117 -31 122 -7 12 -44 8 -55 -5z
m115 -563 c47 -199 85 -366 85 -370 0 -5 -79 -9 -175 -9 -155 0 -175 2 -170
16 2 9 20 84 38 166 19 83 56 246 83 363 27 118 50 210 51 205 1 -4 41 -171
88 -371z"/>
<path d="M2415 1940 c-33 -4 -71 -12 -85 -19 -62 -33 -110 -102 -126 -182 -10
-50 -12 -584 -2 -657 13 -101 56 -169 131 -209 50 -27 180 -24 234 5 63 33
106 99 122 184 17 93 1 148 -43 148 -40 0 -57 -22 -62 -80 -6 -74 -20 -112
-50 -141 -21 -20 -36 -24 -89 -24 -53 0 -68 4 -89 24 -46 44 -50 73 -50 412
-1 283 1 320 17 355 23 49 55 73 105 78 94 9 147 -48 157 -168 6 -69 13 -79
55 -79 46 0 55 15 53 92 -4 125 -70 226 -165 252 -24 6 -45 12 -48 13 -3 1
-32 -1 -65 -4z"/>
<path d="M3493 1939 c-12 -4 -24 -13 -28 -20 -5 -6 -8 -241 -8 -521 0 -474 2
-510 18 -528 21 -24 44 -25 70 -6 18 13 20 30 21 238 1 122 2 226 3 229 0 3
36 5 79 4 88 -2 129 -19 163 -67 21 -29 23 -42 24 -197 1 -156 7 -210 23 -212
4 0 16 -2 27 -4 11 -2 29 3 40 11 18 13 19 27 20 167 1 83 -3 172 -7 197 -8
47 -46 130 -59 130 -20 0 -15 35 11 71 74 102 69 336 -9 430 -51 62 -105 80
-245 83 -67 2 -132 -1 -143 -5z m276 -125 c47 -28 64 -84 59 -192 -6 -140 -38
-173 -168 -176 -44 -1 -83 0 -88 3 -12 9 -10 375 3 384 19 14 161 0 194 -19z"/>
<path d="M4767 1942 c-15 -2 -32 -13 -39 -25 -8 -16 -11 -164 -11 -531 0 -483
1 -510 18 -522 14 -11 64 -14 201 -14 197 0 214 4 214 54 0 48 -25 56 -178 56
l-142 0 -1 28 c-3 95 0 344 4 348 3 3 65 6 139 5 101 0 138 3 155 15 26 16 30
51 10 78 -12 16 -30 18 -160 19 -81 0 -147 4 -147 9 -1 4 -1 64 -1 133 0 69 0
151 1 183 l0 58 141 -1 c151 -1 179 7 179 49 0 12 -6 30 -13 40 -11 15 -33 18
-177 19 -91 1 -177 1 -193 -1z"/>
<path d="M6132 1938 c-67 -10 -101 -28 -140 -73 -57 -65 -65 -116 -67 -435 0
-157 3 -314 7 -349 10 -87 51 -157 113 -196 43 -27 57 -30 129 -30 71 0 87 4
129 28 77 46 118 129 121 244 1 67 -8 83 -50 83 -38 0 -54 -22 -60 -80 -11
-119 -42 -161 -126 -167 -41 -3 -61 1 -86 17 -62 38 -65 60 -67 400 0 168 3
323 9 345 14 61 41 93 84 101 20 4 44 8 53 9 9 2 34 -5 55 -14 47 -21 73 -71
79 -146 2 -28 4 -55 4 -62 1 -10 26 -23 58 -29 77 -14 53 226 -31 298 -57 49
-130 69 -214 56z"/>
<path d="M7238 1942 c-54 -6 -53 1 -53 -549 0 -415 3 -513 14 -527 12 -14 40
-16 201 -16 199 0 206 2 215 49 2 13 -4 30 -15 41 -18 18 -35 20 -164 20
l-145 0 1 190 0 190 92 1 c152 0 206 5 218 17 14 14 15 69 1 83 -7 7 -69 11
-161 12 l-150 1 0 175 c0 97 1 183 4 191 3 12 29 15 150 15 129 0 147 3 159
19 8 10 12 27 9 39 -8 44 -22 48 -190 50 -87 1 -171 1 -186 -1z"/>
<path d="M1223 1412 c-13 -2 -23 -9 -23 -17 0 -10 83 -13 435 -13 403 0 463 3
441 25 -5 6 -814 10 -853 5z"/>
<path d="M7850 1412 c-5 -2 -10 -10 -10 -17 0 -11 80 -13 440 -13 366 0 440 3
440 14 0 9 -12 14 -32 15 -145 2 -830 3 -838 1z"/>
</g>
</svg>
